<svg width="80" height="80" xmlns="http://www.w3.org/2000/svg">
 <title/>

 <g>
  <title>background</title>
  <rect fill="#ffffff" id="canvas_background" height="82" width="82" y="-1" x="-1"/>
 </g>
 <g>
  <title>Layer 1</title>
  <circle fill="#036b52" id="svg_1" r="4.43" cy="28.21" cx="28.64"/>
  <rect fill="#036b52" id="svg_2" y="34.48" x="25.21" width="6.86" ry="1.1" rx="1.1" height="21.74"/>
  <path fill="#036b52" id="svg_3" d="m48.48,34.15c-3.62,0 -5.32,1.32 -6.46,3l0,-1.66a1,1 0 0 0 -1,-1l-4.86,0a1,1 0 0 0 -1,1l0,19.73a1,1 0 0 0 1,1l4.84,0a1,1 0 0 0 1,-1l0,-10.58c0.13,-1.42 0.75,-4.59 3.84,-4.59c4,0 3.58,4.63 3.58,6l0,9.17a1,1 0 0 0 1,1l5,0a1,1 0 0 0 1,-1l0,-9.47c0.02,-4.11 0.07,-11.6 -7.94,-11.6z"/>
  <path fill="#036b52" id="svg_4" d="m0,0l0,80l80,0l0,-80l-80,0zm60.81,57a3.77,3.77 0 0 1 -3.81,3.81l-34,0a3.77,3.77 0 0 1 -3.81,-3.81l0,-34a3.77,3.77 0 0 1 3.81,-3.81l34,0a3.77,3.77 0 0 1 3.81,3.81l0,34z"/>
 </g>
</svg>